<?xml version="1.0" encoding="iso-8859-1"?>
<!-- Uploaded to: SVG Repo, www.svgrepo.com, Generator: SVG Repo Mixer Tools -->
<svg height="800px" width="800px" version="1.1" id="Layer_1" xmlns="http://www.w3.org/2000/svg" xmlns:xlink="http://www.w3.org/1999/xlink" 
	 viewBox="0 0 512 512" xml:space="preserve">
<path style="fill:#8AD5DD;" d="M417.392,133.568h-7.576c-7.544-31.896-36.136-55.648-70.336-55.648
	c-8.312,0-16.256,1.472-23.688,4.048C299.064,34.264,253.76,0,200.344,0C132.728,0,77.912,54.816,77.912,122.432
	c0,4.256,0.224,8.464,0.648,12.608C34.112,142.736,0,181.616,0,228.176c0,52.032,42.576,94.608,94.608,94.608h61.208L256,220.64
	l100.176,102.144h61.208c52.04,0,94.616-42.576,94.616-94.608C512,176.136,469.424,133.568,417.392,133.568z"/>
<polygon style="fill:#DB2B42;" points="155.824,322.784 110.32,369.176 155.8,413.552 224.136,343.888 224.136,512 287.864,512 
	287.864,343.88 356.2,413.552 401.68,369.176 356.184,322.784 256,220.64 "/>
</svg>